<?xml version="1.0" encoding="utf-8"?>
<!-- Generator: Adobe Illustrator 28.0.0, SVG Export Plug-In . SVG Version: 6.00 Build 0)  -->
<svg version="1.1" id="Слой_1" xmlns="http://www.w3.org/2000/svg" xmlns:xlink="http://www.w3.org/1999/xlink" x="0px" y="0px"
	 viewBox="0 0 1000 1000" enable-background="new 0 0 1000 1000" xml:space="preserve">
<g>
	<path d="M524.8058472,444.084259v346.6666565h-64.666626v-371L524.8058472,444.084259z"/>
	<path d="M266.4725342,411.7509155c0-88.6666565,48.3333435-137,105-137s64.6666565,8.0000305,129,40.3333435
		s80.666626,40.333313,113,40.333313c32.333313,0,48.333313-24.3333435,48.333313-72.6666565h56.333313
		c8,96.6666565-48.333313,137-105,137s-72.666687-8.0000305-129-40.3333435s-72.666687-40.333313-105-40.333313
		s-48.3333435,24.3333435-56.3333435,80.6666565L266.4725342,411.7509155z"/>
	<path d="M500.4725342,1000.4176025c-275.6666565,0-500-224.333374-500-500.0000305s224.3333435-500,500-500
		s500,224.3333435,500,500S776.1391602,1000.4176025,500.4725342,1000.4176025z M500.4725342,32.7509155
		c-258,0-467.666687,209.6666565-467.666687,467.6666565s209.6666565,467.6666565,467.666687,467.6666565
		s467.666626-209.666687,467.666626-467.6666565S758.4725342,32.7509155,500.4725342,32.7509155z"/>
</g>
</svg>
