<?xml version="1.0" encoding="utf-8"?>
<svg width="800px" height="800px" viewBox="0 0 32 32" xmlns="http://www.w3.org/2000/svg" fill="none">
  <title>file_type_vite</title>
  <path d="M 29.884 6.146 L 16.742 29.646 C 16.47 30.131 15.773 30.134 15.498 29.651 L 2.096 6.148 C 1.796 5.622 2.245 4.985 2.842 5.091 L 12.103 6.747 L 11.653 14.346 C 11.639 14.584 11.857 14.768 12.09 14.715 L 14.797 14.09 C 14.806 14.088 14.816 14.086 14.825 14.085 C 14.822 14.085 14.818 14.086 14.815 14.086 C 15.062 14.043 15.279 14.261 15.228 14.509 L 14.423 18.449 C 14.369 18.714 14.618 18.941 14.877 18.862 L 16.549 18.354 C 16.715 18.304 16.876 18.378 16.957 18.507 C 16.947 18.491 16.934 18.474 16.921 18.459 C 16.991 18.538 17.027 18.65 17.003 18.768 L 15.724 24.955 C 15.644 25.342 16.159 25.553 16.374 25.222 L 16.517 25 L 24.442 9.185 C 24.575 8.92 24.346 8.618 24.055 8.674 L 21.268 9.212 C 21.217 9.222 21.167 9.221 21.121 9.21 C 21.087 9.203 21.055 9.19 21.025 9.173 C 20.889 9.096 20.809 8.932 20.857 8.762 L 21.515 6.483 L 21.514 6.483 L 29.132 5.095 C 29.726 4.986 30.178 5.619 29.884 6.146 Z M 16.957 18.507 C 16.958 18.509 16.959 18.51 16.96 18.512 C 16.959 18.51 16.958 18.509 16.957 18.507 Z M 12.103 6.747 L 12.158 5.812 L 12.213 4.88 L 12.213 4.88 Z M 20.857 8.762 C 20.808 8.932 20.889 9.096 21.025 9.173 C 21.055 9.19 21.087 9.203 21.121 9.21 C 21.15 9.217 21.18 9.22 21.211 9.219 C 20.975 9.227 20.788 9 20.857 8.762 Z M 17.003 18.768 C 17.022 18.674 17.004 18.585 16.96 18.512 C 17.004 18.585 17.023 18.674 17.003 18.768 Z M 12.251 4.242 L 12.213 4.88 L 12.213 4.88 Z M 22.635 2.167 C 22.633 2.164 22.631 2.16 22.628 2.156 C 22.63 2.159 22.632 2.162 22.634 2.165 C 22.634 2.166 22.635 2.167 22.635 2.167 Z M 22.297 2.002 L 22.296 2.002 C 22.435 1.987 22.558 2.053 22.628 2.156 C 22.557 2.053 22.434 1.987 22.297 2.002 Z M 22.643 2.18 C 22.64 2.176 22.638 2.172 22.635 2.167 C 22.638 2.172 22.641 2.176 22.643 2.18 Z M 12.346 4.02 C 12.344 4.023 12.342 4.025 12.34 4.027 C 12.341 4.025 12.343 4.023 12.345 4.021 C 12.345 4.021 12.345 4.021 12.346 4.02 Z M 12.357 4.008 C 12.353 4.013 12.349 4.017 12.346 4.02 C 12.349 4.016 12.353 4.012 12.357 4.008 Z" style="fill: rgb(0, 0, 0);"/>
</svg>